<svg width="53" height="36" viewBox="0 0 53 36" fill="none" xmlns="http://www.w3.org/2000/svg">
<path d="M39.8473 31.2974C40.0385 32.6739 39.5175 33.9887 38.574 34.8127C38.3988 34.9674 38.2091 35.1032 38.0067 35.2199C37.8234 35.3242 37.6322 35.4141 37.4299 35.4851C36.9709 35.6477 36.4928 35.7077 36.0227 35.6778C36.0099 35.6778 35.9971 35.6778 35.9844 35.6746C35.0378 35.6068 34.1262 35.1773 33.4809 34.4908C32.4339 33.3778 32.4642 31.9951 32.4768 31.7063C32.4768 31.5673 32.4833 31.4316 32.4991 31.2974H21.1207C21.1368 31.4316 21.1431 31.5673 21.1431 31.7063C21.1559 31.9951 21.1861 33.3778 20.1391 34.4908C19.4937 35.1773 18.5822 35.6068 17.6356 35.6746C17.6228 35.6778 17.61 35.6778 17.5972 35.6778C17.1272 35.7077 16.6491 35.6477 16.1902 35.4851C15.9877 35.4141 15.7965 35.3242 15.6132 35.2199C15.4108 35.1032 15.2212 34.9674 15.0459 34.8143C15.0443 34.8143 15.0443 34.8127 15.0443 34.8127C14.1025 33.9871 13.5814 32.6739 13.7726 31.2974H9.67383C9.70091 31.1963 9.7296 31.0938 9.75669 30.9927C10.2666 29.1159 10.7766 27.2375 11.2866 25.3605L11.6212 25.3448L15.5367 25.1712C15.7136 25.1633 15.8491 25.0164 15.8411 24.8429C15.8331 24.6675 15.6881 24.5319 15.508 24.5414L11.7949 24.7055L11.4619 24.7212C11.6467 24.0363 11.8332 23.3528 12.018 22.6692L12.3415 22.6961L15.4857 22.9564H15.5128C15.677 22.9564 15.8172 22.8319 15.83 22.6676C15.8443 22.4941 15.7152 22.3409 15.5399 22.3266L12.5105 22.0757L12.1869 22.0489C12.375 21.3559 12.563 20.6629 12.7511 19.9715L13.0507 20.0868L16.0339 21.228C16.0706 21.2423 16.1104 21.2502 16.1487 21.2502C16.2761 21.2502 16.3972 21.1728 16.4452 21.0481C16.5088 20.8855 16.4275 20.7024 16.2633 20.6393L13.218 19.4727L12.9184 19.359C14.571 13.2755 16.2251 7.19189 17.8778 1.10986C19.0714 4.74676 20.2633 8.38365 21.4554 12.019C22.2969 11.5959 24.2586 10.7293 26.7988 10.7688H26.8211C29.3613 10.7293 31.3231 11.5959 32.1645 12.019C33.3565 8.38365 34.5486 4.74676 35.7422 1.10986C37.3947 7.19189 39.049 13.2755 40.7015 19.359L40.402 19.4727L37.3565 20.6393C37.1924 20.7024 37.1095 20.8855 37.1733 21.0481C37.2226 21.1728 37.3437 21.2502 37.4713 21.2502C37.5095 21.2502 37.5477 21.2423 37.5859 21.228L40.5692 20.0868L40.8689 19.9715C41.0568 20.6629 41.2449 21.3559 41.4329 22.0489L41.1094 22.0757L38.08 22.3266C37.9047 22.3409 37.774 22.4941 37.7883 22.6676C37.8027 22.8319 37.9429 22.9564 38.1055 22.9564H38.1326L41.2785 22.6961L41.6019 22.6692C41.7868 23.3528 41.9732 24.0363 42.158 24.7212L41.825 24.7055L38.1103 24.5414C37.9303 24.535 37.7852 24.6675 37.7773 24.8429C37.7692 25.0164 37.9063 25.1633 38.0817 25.1712L41.9987 25.3448L42.3334 25.3605C42.8434 27.2375 43.3533 29.1159 43.8633 30.9927C43.8903 31.0938 43.919 31.1963 43.946 31.2974H39.8473Z" fill="#F4E041"/>
<path d="M44.3604 31.613L44.2776 31.3098L44.1914 30.9926L42.6647 25.3746L42.3333 25.3604L41.9987 25.3447L43.5301 30.9815H39.4807L39.5301 31.3399C39.6815 32.4242 39.3564 33.4756 38.7046 34.2332C38.5803 34.3785 38.4433 34.5127 38.2966 34.6326C38.2521 34.6705 38.2058 34.7068 38.1596 34.7399C38.064 34.8126 37.9652 34.8773 37.8616 34.9357C37.6911 35.0352 37.5111 35.1203 37.3213 35.1867C37.0058 35.2987 36.6775 35.3587 36.3477 35.3682C36.2392 35.3714 36.1309 35.3682 36.0226 35.3619C35.9174 35.3556 35.8121 35.3429 35.7071 35.3256C34.9612 35.2071 34.2489 34.8441 33.7135 34.2744C32.8242 33.3287 32.7748 32.1734 32.7955 31.706C32.7955 31.5688 32.8018 31.4471 32.8146 31.3335L32.8561 30.9815H20.7621L20.8035 31.3335C20.8163 31.4471 20.8243 31.5688 20.8243 31.7187C20.8434 32.1734 20.794 33.3287 19.9047 34.2744C19.3693 34.8441 18.6569 35.2071 17.9127 35.3256C17.8076 35.3429 17.7024 35.3556 17.5972 35.3619C17.4889 35.3682 17.3805 35.3714 17.2721 35.3682C16.9407 35.3587 16.6124 35.2987 16.2968 35.1867C16.1088 35.1203 15.9287 35.0368 15.7598 34.9373H15.7582C15.6546 34.8788 15.5542 34.8126 15.4586 34.7399C15.4124 34.7068 15.3661 34.6705 15.3215 34.6326C15.1749 34.5127 15.0379 34.3785 14.9136 34.2332C14.2618 33.4756 13.9367 32.4242 14.0881 31.3399L14.1375 30.9815H10.0897L11.6211 25.3447L11.2865 25.3604L10.9534 25.3746L9.42674 30.9926L9.34069 31.3098L9.25781 31.613H13.4203C13.3152 33.4677 14.3924 35.1851 16.0817 35.7818C17.5526 36.3027 19.2768 35.8702 20.3718 34.7052C21.425 33.5844 21.484 32.2238 21.4618 31.706C21.4618 31.6745 21.4602 31.6428 21.4602 31.613H32.1581V31.6919C32.1342 32.2238 32.1931 33.5844 33.2466 34.7052C34.0337 35.5419 35.1429 35.9996 36.2504 35.9996C36.6856 35.9996 37.1206 35.9286 37.5365 35.7818C39.2257 35.1851 40.303 33.4677 40.1979 31.613H44.3604ZM12.018 22.669L11.6945 22.6421L11.1271 24.7353L11.4618 24.7211L11.7949 24.7054L12.3415 22.6958L12.018 22.669ZM35.7709 0L35.4377 1.01183C34.4433 4.04573 33.4473 7.07964 32.453 10.112L31.9733 11.5753C30.7605 11.0101 28.9628 10.415 26.8211 10.4529H26.8036C24.6554 10.4182 22.8577 11.0101 21.6451 11.5753L21.1654 10.112C20.1708 7.07964 19.1765 4.04573 18.1805 1.01183L17.8475 0L12.6188 19.2437L12.9184 19.3589L13.2179 19.4726L17.9064 2.21782C18.7908 4.91549 19.6753 7.6116 20.5581 10.3077L21.2674 12.4671L21.5988 12.2998C22.7398 11.7252 24.5741 11.0433 26.7987 11.0843H26.8258C29.0569 11.0464 30.8783 11.7252 32.0194 12.2998L32.3524 12.4671L33.0601 10.3077C33.9429 7.6116 34.8273 4.91549 35.7134 2.21782L40.4018 19.4726L40.7014 19.3589L40.9995 19.2437L35.7709 0ZM12.4514 19.8562L11.8634 22.0218L12.1869 22.0486L12.5104 22.0755L13.0506 20.0867L12.751 19.9714L12.4514 19.8562ZM41.1667 19.8576L40.8688 19.9714L40.5692 20.0867L41.1094 22.0755L41.4329 22.0486L41.7549 22.0234L41.1667 19.8576ZM41.9237 22.6421L41.6019 22.669L41.2783 22.6958L41.825 24.7054L42.158 24.7211L42.491 24.7353L41.9237 22.6421Z" fill="black" fill-opacity="0.87"/>
<path d="M29.3354 20.6991C28.9609 20.6991 28.6582 20.399 28.6582 20.0281V15.9619C28.6582 15.5909 28.9609 15.291 29.3354 15.291C29.7099 15.291 30.0126 15.5909 30.0126 15.9619V20.0281C30.0126 20.3976 29.7099 20.6991 29.3354 20.6991Z" fill="black" fill-opacity="0.87"/>
<path d="M24.6813 19.989C24.3099 20.0284 23.9752 19.7616 23.9354 19.3923L23.6055 16.3237C23.5656 15.9559 23.835 15.6244 24.2079 15.5849C24.5793 15.5455 24.9139 15.8122 24.9537 16.1816L25.2835 19.2502C25.3235 19.6196 25.0541 19.9495 24.6813 19.989Z" fill="black" fill-opacity="0.87"/>
<path d="M16.4424 21.048C16.3946 21.1727 16.2735 21.25 16.146 21.25C16.1077 21.25 16.0679 21.2422 16.0312 21.228L13.048 20.0866L12.7484 19.9714L12.4488 19.8562L8.11415 18.1971C7.94842 18.134 7.86714 17.9509 7.93088 17.7883C7.99464 17.6258 8.17949 17.5453 8.34364 17.6084L12.6161 19.2437L12.9157 19.3589L13.2153 19.4725L16.2607 20.6392C16.4249 20.7023 16.5061 20.8854 16.4424 21.048Z" fill="black" fill-opacity="0.87"/>
<path d="M15.8269 22.6674C15.8141 22.8317 15.6739 22.9564 15.5098 22.9564H15.4827L12.3385 22.6959L12.015 22.669L11.6915 22.6422L7.02378 22.2555C6.84848 22.2412 6.71779 22.0882 6.73374 21.9145C6.74807 21.7409 6.89947 21.6114 7.07795 21.6273L11.8604 22.0218L12.1839 22.0487L12.5074 22.0755L15.5369 22.3266C15.7122 22.3407 15.8412 22.4939 15.8269 22.6674Z" fill="black" fill-opacity="0.87"/>
<path d="M15.8385 24.843C15.8464 25.0167 15.711 25.1634 15.5341 25.1713L11.6186 25.3449L11.2839 25.3608L10.9509 25.3749L7.05446 25.5487H7.04011C6.87119 25.5487 6.72937 25.4159 6.72299 25.2472C6.71502 25.0718 6.85048 24.9251 7.02577 24.9172L11.1246 24.7356L11.4592 24.7215L11.7923 24.7057L15.5054 24.5415C15.6855 24.532 15.8305 24.6678 15.8385 24.843Z" fill="black" fill-opacity="0.87"/>
<path d="M45.5003 18.1971L41.1641 19.8578L40.866 19.9714L40.5665 20.0866L37.5832 21.228C37.545 21.2422 37.5067 21.25 37.4684 21.25C37.341 21.25 37.2198 21.1727 37.1704 21.048C37.1068 20.8854 37.1895 20.7023 37.3537 20.6392L40.3991 19.4725L40.6988 19.3589L40.9967 19.2437L45.2707 17.6084C45.4333 17.5453 45.6198 17.6258 45.6836 17.7883C45.7457 17.9509 45.6645 18.134 45.5003 18.1971Z" fill="black" fill-opacity="0.87"/>
<path d="M46.8787 21.9149C46.8929 22.0884 46.7623 22.2416 46.5869 22.2557L41.9193 22.6426L41.5973 22.6694L41.2738 22.6963L38.128 22.9566H38.101C37.9384 22.9566 37.7982 22.8321 37.7838 22.6678C37.7694 22.4942 37.9002 22.3411 38.0754 22.3268L41.105 22.0759L41.4284 22.0491L41.7503 22.0238L46.5343 21.6275C46.7097 21.6102 46.8643 21.7411 46.8787 21.9149Z" fill="black" fill-opacity="0.87"/>
<path d="M46.89 25.2468C46.8819 25.4157 46.7417 25.5483 46.5712 25.5483H46.5568L42.6604 25.3747L42.329 25.3604L41.9944 25.3446L38.0773 25.1711C37.902 25.163 37.7649 25.0163 37.7728 24.8427C37.7809 24.6674 37.9258 24.5348 38.106 24.5412L41.8207 24.7053L42.1537 24.7211L42.4867 24.7354L46.5856 24.9168C46.7624 24.9247 46.8979 25.0716 46.89 25.2468Z" fill="black" fill-opacity="0.87"/>
<path d="M35.8901 32.6484C36.0118 32.9957 36.1173 33.4189 36.1509 33.9034C36.1909 34.4733 36.1189 34.969 36.0197 35.3619L35.8901 32.6484Z" fill="white"/>
<path d="M36.0212 35.6778C35.9957 35.6778 35.9702 35.6746 35.9447 35.6684C35.7743 35.6272 35.669 35.4553 35.7121 35.2864C35.8236 34.8364 35.8651 34.3786 35.8332 33.9256C35.806 33.5325 35.7233 33.138 35.5894 32.7527C35.5319 32.5886 35.6197 32.4086 35.7869 32.3519C35.9543 32.295 36.1343 32.3818 36.1916 32.5477C36.3446 32.9848 36.4371 33.4346 36.469 33.883C36.5057 34.4023 36.4578 34.9248 36.3304 35.4394C36.2936 35.5814 36.163 35.6778 36.0212 35.6778Z" fill="black" fill-opacity="0.87"/>
<path d="M37.9683 32.5239C38.1635 32.8349 38.3333 33.2137 38.3861 33.6478C38.4502 34.1577 38.3349 34.6013 38.1764 34.9549L37.9683 32.5239Z" fill="white"/>
<path d="M38.1758 35.2687C38.1327 35.2687 38.0896 35.2592 38.0466 35.2419C37.8856 35.1708 37.8123 34.9846 37.884 34.8251C38.053 34.4463 38.1136 34.0627 38.0673 33.6839C38.0258 33.3524 37.9017 33.0178 37.6961 32.6878C37.6036 32.5395 37.6498 32.3452 37.7997 32.2537C37.9494 32.1621 38.1455 32.2079 38.2379 32.3563C38.4929 32.7635 38.6474 33.1851 38.7 33.6081C38.7605 34.1006 38.6825 34.5963 38.4673 35.0808C38.4147 35.1993 38.2985 35.2687 38.1758 35.2687Z" fill="black" fill-opacity="0.87"/>
<path d="M17.7273 32.6484C17.6057 32.9957 17.5 33.4189 17.4663 33.9034C17.4263 34.4733 17.4984 34.969 17.5975 35.3619L17.7273 32.6484Z" fill="white"/>
<path d="M17.5945 35.6778C17.4512 35.6778 17.322 35.5814 17.2855 35.4379C17.1579 34.9249 17.1101 34.4008 17.1467 33.8814C17.177 33.4316 17.2711 32.9832 17.424 32.546C17.4815 32.3818 17.6632 32.2934 17.8288 32.3503C17.9946 32.407 18.0838 32.587 18.0265 32.7513C17.8926 33.1363 17.8097 33.5294 17.7826 33.924C17.7507 34.377 17.7922 34.8349 17.9037 35.2847C17.9452 35.4536 17.8416 35.6256 17.6711 35.6668C17.6455 35.6746 17.6201 35.6778 17.5945 35.6778Z" fill="black" fill-opacity="0.87"/>
<path d="M15.6491 32.5239C15.4538 32.8349 15.2842 33.2137 15.2314 33.6478C15.1674 34.1577 15.2826 34.6013 15.441 34.9549L15.6491 32.5239Z" fill="white"/>
<path d="M15.4398 35.2687C15.3171 35.2687 15.2008 35.1977 15.1482 35.0808C14.933 34.5977 14.8534 34.1021 14.9155 33.6081C14.9681 33.1851 15.1227 32.7651 15.3777 32.3563C15.4701 32.2079 15.6661 32.1621 15.8159 32.2537C15.9657 32.3452 16.0119 32.5395 15.9195 32.6878C15.7139 33.0161 15.5896 33.3524 15.5482 33.6839C15.502 34.0627 15.5625 34.4463 15.7314 34.8251C15.8032 34.9846 15.7299 35.1708 15.5689 35.2419C15.5259 35.2608 15.4828 35.2687 15.4398 35.2687Z" fill="black" fill-opacity="0.87"/>
<path d="M11.5688 31.5672H0.339013C0.152556 31.5672 0 31.4462 0 31.2985C0 31.1506 0.152556 31.0298 0.339013 31.0298H11.5688C11.7553 31.0298 11.9078 31.1506 11.9078 31.2985C11.9078 31.4462 11.7553 31.5672 11.5688 31.5672Z" fill="black" fill-opacity="0.87"/>
<path d="M52.4552 31.6239H41.8974C41.7221 31.6239 41.5786 31.482 41.5786 31.3083C41.5786 31.1347 41.7221 30.9927 41.8974 30.9927H52.4552C52.6305 30.9927 52.7738 31.1347 52.7738 31.3083C52.7738 31.482 52.6319 31.6239 52.4552 31.6239Z" fill="black" fill-opacity="0.87"/>
<path d="M30.0521 25.8154C29.8225 26.4057 29.2918 27.045 28.6178 27.1414C27.9947 27.2282 27.4209 26.8983 27.0082 26.3853C26.9684 26.4941 26.919 26.6062 26.8553 26.7183C26.7516 26.9015 26.1955 27.8074 25.268 27.8074H25.2424C24.3596 27.7917 23.5932 26.9945 23.4593 25.9512C23.4386 25.7774 23.5613 25.6196 23.7365 25.5991C23.9087 25.577 24.0713 25.7001 24.092 25.8723C24.194 26.6773 24.7629 27.1681 25.2536 27.1761H25.2664C25.8513 27.1761 26.2545 26.4894 26.2991 26.4105C26.519 26.019 26.5141 25.618 26.4743 25.3545C26.4601 25.3056 26.4473 25.2566 26.4345 25.2077C25.8211 25.2788 25.292 25.0656 25.1947 24.6772C25.0848 24.2352 25.5772 23.7333 26.2959 23.5566C27.0162 23.3798 27.6887 23.5943 27.7986 24.0364C27.8911 24.4011 27.5739 24.8051 27.0576 25.0356C27.0735 25.0939 27.0879 25.1635 27.1007 25.2392C27.3588 26.0884 28.0186 26.5857 28.5285 26.5162C28.9238 26.4594 29.295 26.0063 29.456 25.5896C29.5931 25.236 29.574 24.903 29.5342 24.6867C29.5039 24.5147 29.6185 24.3505 29.7906 24.319C29.9659 24.2889 30.1301 24.4026 30.162 24.5731C30.2162 24.8699 30.2416 25.3244 30.0521 25.8154Z" fill="black" fill-opacity="0.87"/>
</svg>
